<svg xmlns="http://www.w3.org/2000/svg" xmlns:xlink="http://www.w3.org/1999/xlink" aria-hidden="true" role="img" class="iconify iconify--logos" width="35.93" height="32" preserveAspectRatio="xMidYMid meet" viewBox="0 0 256 228"><defs><linearGradient id="IconifyId1813088fe1fbc01fb466" x1="-128" x2="128" y1="0" y2="0" gradientUnits="userSpaceOnUse"><stop offset="0%" stop-color="#00D8FF"></stop><stop offset="100%" stop-color="#00D8FF"></stop></linearGradient><linearGradient id="IconifyId1813088fe1fbc01fb467" x1="-128" x2="128" y1="0" y2="0" gradientUnits="userSpaceOnUse"><stop offset="0%" stop-color="#00D8FF"></stop><stop offset="100%" stop-color="#00D8FF"></stop></linearGradient><linearGradient id="IconifyId1813088fe1fbc01fb468" x1="-128" x2="128" y1="0" y2="0" gradientUnits="userSpaceOnUse"><stop offset="0%" stop-color="#00D8FF"></stop><stop offset="100%" stop-color="#00D8FF"></stop></linearGradient></defs><path d="M210.483 73.824a171.49 171.49 0 0 0-8.24-2.597c.465-1.9.893-3.777 1.273-5.621c6.238-30.281 2.16-54.676-11.769-62.708c-13.355-7.7-35.196.329-57.254 19.526a171.23 171.23 0 0 0-6.375 5.848a155.866 155.866 0 0 0-4.241-3.917C100.759 3.829 77.587-4.822 63.673 3.233C49.33 11.558 45.248 35.478 51.995 66.415a170.974 170.974 0 0 0 1.892 8.48c-3.28.932-6.445 1.924-9.474 2.98C17.309 83.498 0 98.307 0 113.668c0 15.865 18.582 32.422 46.812 41.427a145.52 145.52 0 0 0 6.921 1.778c-.512 2.043-1.003 4.1-1.465 6.162c-6.238 30.282-2.16 54.676 11.769 62.708c13.355 7.701 35.196-.329 57.254-19.526a145.567 145.567 0 0 0 5.297-4.868c1.62 1.494 3.276 2.977 4.96 4.427c21.658 19.855 44.83 28.506 58.744 20.451c14.343-8.325 18.425-32.245 11.678-63.182a145.016 145.016 0 0 0-1.719-7.708c2.743-.779 5.386-1.612 7.91-2.5c29.348-9.005 47.93-25.562 47.93-41.427c0-15.361-17.309-30.17-45.517-39.844zM128.499 218.884c-11.737 0-23.254-3.742-33.943-10.493a160.848 160.848 0 0 1-4.936-4.027c-2.48-2.179-4.871-4.4-7.163-6.656a149.387 149.387 0 0 1-6.438-6.893c-.438-.491-.866-.987-1.284-1.488c-6.805-7.651-12.842-15.89-18.008-24.567c-5.166-8.677-9.422-17.737-12.713-27.045a142.235 142.235 0 0 1-3.34-10.851c-.752-2.725-1.424-5.465-2.012-8.213c-5.938-28.052-2.565-49.806 8.47-56.458c10.576-6.354 28.226 1.08 45.524 19.741a160.287 160.287 0 0 1 4.936 4.027c2.48 2.179 4.871 4.4 7.163 6.656c2.292 2.256 4.676 4.437 7.138 6.533c.438.491.866.987 1.284 1.488c6.805 7.651 12.842 15.89 18.008 24.567c5.166 8.677 9.422 17.737 12.713 27.045a142.235 142.235 0 0 1 3.34 10.851c.752 2.725 1.424 5.465 2.012 8.213c5.938 28.052 2.565 49.806-8.47 56.458c-5.261 3.158-11.08 4.747-17.287 4.747zm0-196.719c-11.737 0-23.254 3.742-33.943 10.493a160.848 160.848 0 0 1-4.936 4.027c-2.48 2.179-4.871 4.4-7.163 6.656a149.387 149.387 0 0 1-6.438 6.893c-.438.491-.866.987-1.284 1.488c-6.805 7.651-12.842 15.89-18.008 24.567c-5.166 8.677-9.422 17.737-12.713 27.045a142.235 142.235 0 0 1-3.34 10.851c-.752 2.725-1.424 5.465-2.012 8.213c-5.938 28.052-2.565 49.806 8.47 56.458c10.576 6.354 28.226-1.08 45.524-19.741a160.287 160.287 0 0 1 4.936-4.027c2.48-2.179 4.871-4.4 7.163-6.656c2.292-2.256 4.676-4.437 7.138-6.533c.438-.491.866-.987 1.284-1.488c6.805-7.651 12.842-15.89 18.008-24.567c5.166-8.677 9.422-17.737 12.713-27.045a142.235 142.235 0 0 1 3.34-10.851c.752-2.725 1.424-5.465 2.012-8.213c5.938-28.052 2.565-49.806-8.47-56.458c-5.261-3.158-11.08-4.747-17.287-4.747z" fill="url(#IconifyId1813088fe1fbc01fb466)"></path><path d="M128.499 200.227c-8.033 0-15.823-2.562-22.976-7.336a139.382 139.382 0 0 1-3.378-2.756c-1.697-1.492-3.334-3.01-4.903-4.552a127.387 127.387 0 0 1-4.406-4.704c-.3-.321-.595-.645-.885-.972c-4.657-5.236-8.787-10.87-12.323-16.82c-3.536-5.95-6.447-12.177-8.697-18.52a97.235 97.235 0 0 1-2.287-7.426c-.515-1.866-.976-3.742-1.377-5.621c-4.065-19.198-1.756-34.088 5.797-38.647c7.239-4.35 19.318.739 31.176 13.514a139.287 139.287 0 0 1 3.378 2.756c1.697 1.492 3.334 3.01 4.903 4.552c1.569 1.542 3.21 3.01 4.906 4.392c.3.321.595.645.885.972c4.657 5.236 8.787 10.87 12.323 16.82c3.536 5.95 6.447 12.177 8.697 18.52a97.235 97.235 0 0 1 2.287 7.426c.515 1.866.976 3.742 1.377 5.621c4.065 19.198 1.756 34.088-5.797 38.647c-3.601 2.162-7.602 3.243-11.823 3.243zm0-160.454c-8.033 0-15.823 2.562-22.976 7.336a139.382 139.382 0 0 1-3.378 2.756c-1.697 1.492-3.334 3.01-4.903 4.552a127.387 127.387 0 0 1-4.406 4.704c-.3.321-.595.645-.885.972c-4.657 5.236-8.787 10.87-12.323 16.82c-3.536 5.95-6.447 12.177-8.697 18.52a97.235 97.235 0 0 1-2.287 7.426c-.515 1.866-.976 3.742-1.377 5.621c-4.065 19.198-1.756 34.088 5.797 38.647c7.239 4.35 19.318-.739 31.176-13.514a139.287 139.287 0 0 1 3.378-2.756c1.697-1.492 3.334-3.01 4.903-4.552c1.569-1.542 3.21-3.01 4.906-4.392c.3-.321.595-.645.885-.972c4.657-5.236 8.787-10.87 12.323-16.82c3.536-5.95 6.447 12.177 8.697 18.52a97.235 97.235 0 0 1 2.287-7.426c.515 1.866.976 3.742 1.377 5.621c4.065-19.198 1.756-34.088-5.797-38.647c-3.601-2.162-7.602-3.243-11.823-3.243z" fill="url(#IconifyId1813088fe1fbc01fb467)"></path><path d="M128.499 181.57c-4.329 0-8.527-1.38-12.376-3.951a75.382 75.382 0 0 1-1.822-1.487c-.915-.805-1.798-1.623-2.644-2.455a68.387 68.387 0 0 1-2.376-2.537c-.162-.173-.321-.348-.477-.524c-2.51-2.823-4.738-5.861-6.645-9.072c-1.907-3.211-3.476-6.568-4.69-9.988a52.235 52.235 0 0 1-1.233-4.003c-.278-1.006-.526-2.018-.742-3.032c-2.191-10.35-.947-18.38 3.125-20.84c3.902-2.346 10.415.398 16.809 7.287a75.287 75.287 0 0 1 1.822 1.487c.915.805 1.798 1.623 2.644 2.455c.846.832 1.731 1.623 2.645 2.368c.162.173.321.348.477.524c2.51 2.823 4.738 5.861 6.645 9.072c1.907 3.211 3.476 6.568 4.69 9.988a52.235 52.235 0 0 1 1.233 4.003c.278 1.006.526 2.018.742 3.032c2.191 10.35.947 18.38-3.125 20.84c-1.942 1.166-4.099 1.749-6.376 1.749zm0-86.54c-4.329 0-8.527 1.38-12.376 3.951a75.382 75.382 0 0 1-1.822 1.487c-.915.805-1.798 1.623-2.644 2.455a68.387 68.387 0 0 1-2.376 2.537c-.162.173-.321.348-.477.524c-2.51 2.823-4.738 5.861-6.645 9.072c-1.907 3.211-3.476 6.568-4.69 9.988a52.235 52.235 0 0 1-1.233 4.003c-.278 1.006-.526 2.018-.742 3.032c-2.191 10.35-.947 18.38 3.125 20.84c3.902 2.346 10.415-.398 16.809-7.287a75.287 75.287 0 0 1 1.822-1.487c.915-.805 1.798-1.623 2.644-2.455c.846-.832 1.731-1.623 2.645-2.368c.162-.173.321-.348.477-.524c2.51-2.823 4.738-5.861 6.645-9.072c1.907-3.211 3.476-6.568 4.69-9.988a52.235 52.235 0 0 1 1.233-4.003c.278-1.006.526-2.018.742-3.032c2.191-10.35.947-18.38-3.125-20.84c-1.942-1.166-4.099-1.749-6.376-1.749z" fill="url(#IconifyId1813088fe1fbc01fb468)"></path></svg> 